<?xml version="1.0" encoding="UTF-8"?>
<svg version="1.1" xmlns="http://www.w3.org/2000/svg" width="338" height="389">
<path d="M0 0 C2.65527344 1.25244141 2.65527344 1.25244141 5.359375 2.8515625 C6.88884766 3.74584961 6.88884766 3.74584961 8.44921875 4.65820312 C10.08310547 5.63176758 10.08310547 5.63176758 11.75 6.625 C12.90697352 7.30502178 14.06453713 7.98404047 15.22265625 8.66210938 C17.62665148 10.07067324 20.02805773 11.48350641 22.42773438 12.89941406 C27.9283488 16.14016978 33.46603409 19.31666323 39 22.5 C41.16684034 23.74969892 43.3335065 24.99969989 45.5 26.25 C46.5725 26.86875 47.645 27.4875 48.75 28.125 C84.5 48.75 84.5 48.75 87.74951172 50.62475586 C89.91776264 51.8756448 92.08605697 53.12645852 94.25439453 54.37719727 C99.64717915 57.48798335 105.03922093 60.60004238 110.4296875 63.71484375 C125.27752432 72.2920195 140.15371036 80.8183353 155.04760742 89.31518555 C158.36584474 91.20877322 161.68292078 93.1043844 165 95 C165.39738269 120.38184651 165.69702623 145.76322602 165.88080692 171.14755821 C165.96841488 182.93455448 166.0878118 194.71961656 166.2824707 206.50537109 C166.45208696 216.7798125 166.56162709 227.05285329 166.59950441 237.32865584 C166.62164398 242.76896762 166.67352646 248.20527336 166.79741096 253.64429855 C166.91318801 258.76909654 166.94833485 263.8882587 166.92283058 269.01424026 C166.9274921 270.89059408 166.96111883 272.76714409 167.02649307 274.6423645 C167.40932291 286.19430725 167.40932291 286.19430725 165 291 C160.85190602 295.3013615 155.4988726 297.73016119 150.08189952 300.06958318 C147.0951725 301.40437433 144.36727374 303.04240512 141.56640625 304.73046875 C139.56553379 305.88355831 137.56422606 307.03589289 135.5625 308.1875 C133.31379049 309.4830528 131.06509292 310.77862632 128.81640625 312.07421875 C127.68734863 312.72438965 126.55829102 313.37456055 125.39501953 314.04443359 C119.9283002 317.19332054 114.46425113 320.34683264 109 323.5 C106.83334689 324.7500235 104.66668021 326.00002347 102.5 327.25 C101.4275 327.86875 100.355 328.4875 99.25 329.125 C87.33333333 336 75.41666667 342.875 63.5 349.75 C62.42709717 350.3689917 61.35419434 350.9879834 60.2487793 351.62573242 C58.08621417 352.8733474 55.92361661 354.12090616 53.76098633 355.3684082 C47.16975011 359.17064351 40.57946533 362.97451656 33.9909668 366.78149414 C31.81027764 368.03968941 29.62817462 369.29543777 27.44458008 370.54858398 C22.22506573 373.54546678 17.02946092 376.57204638 11.875 379.6796875 C10.43314331 380.53687378 10.43314331 380.53687378 8.9621582 381.41137695 C7.16016215 382.48369541 5.36641757 383.57004885 3.58276367 384.67260742 C2.38744019 385.37800659 2.38744019 385.37800659 1.16796875 386.09765625 C0.47985107 386.51539307 -0.2082666 386.93312988 -0.91723633 387.36352539 C-4.60365229 388.4900623 -7.23156313 386.3994511 -10.48168945 384.70996094 C-11.35011475 384.22301758 -12.21854004 383.73607422 -13.11328125 383.234375 C-14.59526001 382.40498413 -14.59526001 382.40498413 -16.10717773 381.55883789 C-17.69381226 380.66346313 -17.69381226 380.66346313 -19.3125 379.75 C-20.42117432 379.12665771 -21.52984863 378.50331543 -22.67211914 377.86108398 C-32.13940877 372.52126695 -41.53299965 367.05876975 -50.91015625 361.5625 C-57.21570419 357.8678669 -63.54294436 354.21147319 -69.875 350.5625 C-70.95515381 349.93996338 -72.03530762 349.31742676 -73.14819336 348.67602539 C-75.33796334 347.41423174 -77.52782355 346.15259466 -79.71777344 344.89111328 C-85.14659946 341.76319849 -90.57316556 338.63136837 -96 335.5 C-97.61068359 334.5709082 -97.61068359 334.5709082 -99.25390625 333.62304688 C-104.64687516 330.51221667 -110.03906364 327.40004851 -115.4296875 324.28515625 C-124.4460891 319.07681821 -133.46383013 313.87126785 -142.5078125 308.7109375 C-143.13517303 308.3529155 -143.76253357 307.99489349 -144.40890503 307.62602234 C-147.43417222 305.89999059 -150.46030302 304.17549909 -153.48779297 302.45336914 C-154.58494629 301.82809326 -155.68209961 301.20281738 -156.8125 300.55859375 C-157.76769531 300.01517334 -158.72289062 299.47175293 -159.70703125 298.91186523 C-160.79371094 298.28094971 -161.88039062 297.65003418 -163 297 C-163.81316838 296.71973245 -164.62633677 296.43946489 -165.46414661 296.15070438 C-168.69035429 294.79951377 -170.62688825 293.59451685 -173 291 C-174.5715821 284.87638616 -174.35794532 278.80175277 -174.27807617 272.51367188 C-174.28999338 270.60133368 -174.306179 268.68901803 -174.3263092 266.77674866 C-174.36761466 261.58816741 -174.3458467 256.40160817 -174.31032348 251.21305275 C-174.28127428 245.78257984 -174.30183187 240.35225726 -174.31477356 234.92175293 C-174.32839035 225.80216763 -174.30053641 216.68339774 -174.2487793 207.56396484 C-174.18951414 197.02176876 -174.19834456 186.48127182 -174.24312609 175.93904257 C-174.2844189 165.79619522 -174.27497099 155.65398467 -174.24328041 145.51112366 C-174.23083987 141.19527091 -174.23665075 136.88001183 -174.25722313 132.56419373 C-174.27933715 127.48106835 -174.25717826 122.40001049 -174.20090294 117.31716728 C-174.18741002 115.45238862 -174.1892058 113.58742708 -174.20743179 111.72268867 C-174.33116359 97.63614716 -174.33116359 97.63614716 -171.05756569 93.61253357 C-168.74046543 92.03216401 -166.61200275 90.99886791 -164 90 C-162.66521495 89.25828733 -161.33893843 88.50073991 -160.02734375 87.71875 C-158.66571265 86.97613299 -157.30235109 86.23668227 -155.9375 85.5 C-148.76523937 81.57092752 -141.67908398 77.51227393 -134.625 73.375 C-125.82246134 68.21620757 -116.98866947 63.11537856 -108.125 58.0625 C-95.79950519 51.03439327 -83.50277637 43.95759395 -71.21777344 36.85888672 C-66.89638733 34.36245016 -62.57349943 31.86862118 -58.25048828 29.375 C-56.0951069 28.13169753 -53.93983227 26.88820997 -51.78466797 25.64453125 C-46.76285179 22.74665642 -41.74041451 19.84987589 -36.71557617 16.95724487 C-34.94954478 15.94052802 -33.18372569 14.92344342 -31.41796875 13.90625 C-29.21265845 12.63599127 -27.00695784 11.36640982 -24.80078125 10.09765625 C-23.79402344 9.51757812 -22.78726563 8.9375 -21.75 8.33984375 C-20.78320312 7.7866748 -19.81640625 7.23350586 -18.8203125 6.66357422 C-16.93512845 5.55158979 -15.07494668 4.39612755 -13.2421875 3.19970703 C-12.37851563 2.64009277 -11.51484375 2.08047852 -10.625 1.50390625 C-9.87476563 0.99802979 -9.12453125 0.49215332 -8.3515625 -0.02905273 C-5.14447624 -1.35324107 -3.3196102 -0.90972646 0 0 Z " fill="#040404" transform="translate(173,1)"/>
<path d="M0 0 C2.24706828 1.11654924 4.49336957 2.23459727 6.73925781 3.35351562 C7.37203644 3.66774475 8.00481506 3.98197388 8.6567688 4.3057251 C13.13465656 6.5386508 17.4759801 8.90334006 21.75 11.5 C23.19330744 12.36185541 24.63737044 13.22244631 26.08203125 14.08203125 C26.8601416 14.54561035 27.63825195 15.00918945 28.43994141 15.48681641 C33.41549069 18.42773329 38.42870896 21.30369562 43.4375 24.1875 C44.54383789 24.82494141 45.65017578 25.46238281 46.79003906 26.11914062 C49.06155677 27.42779629 51.33320497 28.73622549 53.60498047 30.04443359 C59.0716998 33.19332054 64.53574887 36.34683264 70 39.5 C72.16665311 40.7500235 74.33331979 42.00002347 76.5 43.25 C80.83333333 45.75 85.16666667 48.25 89.5 50.75 C90.57378906 51.3694751 91.64757812 51.9889502 92.75390625 52.62719727 C94.9076172 53.86976019 97.06126367 55.11243489 99.21484375 56.35522461 C104.23684262 59.25314623 109.25942807 62.15003349 114.28442383 65.04275513 C116.05045522 66.05947198 117.81627431 67.07655658 119.58203125 68.09375 C121.78734155 69.36400873 123.99304216 70.63359018 126.19921875 71.90234375 C127.70935547 72.77246094 127.70935547 72.77246094 129.25 73.66015625 C130.12140625 74.16168213 130.9928125 74.66320801 131.890625 75.17993164 C132.91671875 75.7805542 133.9428125 76.38117676 135 77 C135.80890875 77.30602426 136.6178175 77.61204851 137.45123863 77.92734623 C140.55192222 79.30320758 142.62460998 80.5601744 145 83 C146.50149366 88.30205412 146.26576143 93.55595041 146.13525391 99.01123047 C146.13243167 100.657413 146.13401945 102.30360811 146.13967896 103.94978333 C146.14254565 108.41113634 146.08380676 112.86979487 146.01393938 117.33052206 C145.9513775 121.99487697 145.94554846 126.6592954 145.9336853 131.32400513 C145.90261746 140.15360113 145.82057688 148.98195732 145.72019041 157.81100762 C145.60837195 167.86398432 145.55342325 177.9170206 145.50323606 187.97046447 C145.39874121 208.64766802 145.22287766 229.32375588 145 250 C143.11380732 249.06691809 141.22878366 248.13147286 139.34423828 247.19506836 C137.76946213 246.41407021 137.76946213 246.41407021 136.16287231 245.61729431 C131.28590251 243.12351817 126.58522083 240.35509721 121.875 237.5625 C119.76597714 236.32231764 117.65658939 235.08275562 115.546875 233.84375 C114.46857422 233.20953125 113.39027344 232.5753125 112.27929688 231.921875 C106.91005267 228.77515892 101.51791809 225.66841381 96.125 222.5625 C94.50634033 221.62966187 94.50634033 221.62966187 92.85498047 220.67797852 C90.66417049 219.41550269 88.4732524 218.15321444 86.28222656 216.89111328 C80.85340058 213.76319852 75.42680719 210.63141552 70 207.5 C67.83334417 206.24998121 65.6666775 204.99998122 63.5 203.75 C59.16666667 201.25 54.83333333 198.75 50.5 196.25 C49.42580811 195.6302832 48.35161621 195.01056641 47.24487305 194.37207031 C45.09526366 193.13189239 42.94568642 191.89165873 40.79614258 190.65136719 C35.72690788 187.7264977 30.65735064 184.80219167 25.5866394 181.87988281 C23.19573403 180.50193062 20.80501328 179.12365828 18.41430664 177.74536133 C16.73016037 176.77459018 15.04574769 175.80428126 13.36132812 174.83398438 C12.33845703 174.24423828 11.31558594 173.65449219 10.26171875 173.046875 C9.36412842 172.52963867 8.46653809 172.01240234 7.54174805 171.47949219 C6.70297119 170.99125977 5.86419434 170.50302734 5 170 C4.13497769 169.61268802 3.26995539 169.22537603 2.37872028 168.82632732 C0 167 0 167 -0.61523914 164.02275562 C-0.61063018 162.79400558 -0.60602121 161.56525553 -0.60127258 160.29927063 C-0.60554471 159.61475411 -0.60981683 158.93023759 -0.61421841 158.22497815 C-0.62247024 155.92577324 -0.59493111 153.62838313 -0.56762695 151.3293457 C-0.56621694 149.68360436 -0.56700755 148.03785987 -0.56983948 146.39212036 C-0.57127687 141.9190259 -0.54183519 137.44659881 -0.50696969 132.97365975 C-0.4757598 128.30117421 -0.4727797 123.62867416 -0.46684265 118.95610046 C-0.45128838 110.10560222 -0.41023856 101.25541198 -0.3600952 92.4050495 C-0.30425093 82.33024536 -0.27672763 72.25542668 -0.25161803 62.18050635 C-0.19932404 41.45349885 -0.11135105 20.72676881 0 0 Z " fill="#FDFDFD" transform="translate(17,117)"/>
<path d="M0 0 C3.55207793 1.74241144 6.96011946 3.69156966 10.375 5.6875 C11.89033325 6.55882568 11.89033325 6.55882568 13.4362793 7.44775391 C16.63022235 9.28829781 19.81590063 11.14248659 23 13 C24.97785722 14.14975226 26.95572163 15.29949212 28.93359375 16.44921875 C32.90541407 18.76170668 36.87346801 21.08053166 40.83984375 23.40234375 C50.43942238 29.01678675 60.08135951 34.5580032 69.71777344 40.10888672 C76.22217941 43.85651605 82.72375795 47.60904961 89.2253418 51.36157227 C94.77686292 54.56532462 100.33020797 57.76584577 105.88671875 60.9609375 C117.32032959 67.53921282 128.73299389 74.13939727 140 81 C137.22262654 83.98885268 134.56071009 86.01050908 130.984375 87.9609375 C129.9931665 88.50741943 129.00195801 89.05390137 127.98071289 89.61694336 C126.91457764 90.19710205 125.84844238 90.77726074 124.75 91.375 C122.47166234 92.63231524 120.19434262 93.89147654 117.91796875 95.15234375 C117.33844955 95.47278152 116.75893036 95.7932193 116.16184998 96.12336731 C110.4118589 99.30974153 104.73201056 102.610649 99.0625 105.9375 C97.07168508 107.10428696 95.080799 108.2709525 93.08984375 109.4375 C92.0932373 110.02144531 91.09663086 110.60539062 90.06982422 111.20703125 C84.7667275 114.30437038 79.44605065 117.37113858 74.125 120.4375 C73.04484619 121.06003662 71.96469238 121.68257324 70.85180664 122.32397461 C68.66203666 123.58576826 66.47217645 124.84740534 64.28222656 126.10888672 C58.8534006 129.23680147 53.42679331 132.36856046 48 135.5 C41.92283836 139.00644483 35.84559527 142.51274701 29.76715088 146.01696777 C28.01658759 147.02619104 26.26609589 148.03553836 24.515625 149.04492188 C22.33607835 150.3016766 20.15640168 151.55820586 17.9765625 152.81445312 C16.97625 153.39130859 15.9759375 153.96816406 14.9453125 154.5625 C13.96981445 155.119375 12.99431641 155.67625 11.98925781 156.25 C9.88661781 157.48094769 7.80956986 158.75614691 5.75292969 160.0625 C4.1697998 161.0525 4.1697998 161.0525 2.5546875 162.0625 C1.60835449 162.67222656 0.66202148 163.28195313 -0.31298828 163.91015625 C-3 165 -3 165 -5.44042969 164.40795898 C-6.28508789 163.94333252 -7.12974609 163.47870605 -8 163 C-9.01980957 162.45609619 -10.03961914 161.91219238 -11.09033203 161.35180664 C-17.60501416 157.65047309 -17.60501416 157.65047309 -20.17529297 156.17797852 C-22.1226407 155.06384982 -24.07476225 153.95844011 -26.02734375 152.85351562 C-27.27113244 152.14375307 -28.51463213 151.43348376 -29.7578125 150.72265625 C-31.44608154 149.75984741 -31.44608154 149.75984741 -33.16845703 148.77758789 C-35.48955306 147.32044871 -37.21016173 146.04378584 -39 144 C-38.29504395 143.60731934 -37.59008789 143.21463867 -36.86376953 142.81005859 C-33.6165818 141.00003733 -30.37078565 139.18753423 -27.125 137.375 C-26.01640625 136.75753906 -24.9078125 136.14007813 -23.765625 135.50390625 C-17.10565632 131.78215904 -10.51278406 127.97399582 -4 124 C-10.76613165 119.29702592 -17.78567129 115.22219479 -25 111.25 C-32.29599391 107.19986165 -39.57292772 103.13276388 -46.75 98.875 C-47.4006543 98.49214844 -48.05130859 98.10929687 -48.72167969 97.71484375 C-51.71630093 95.95175134 -54.70403788 94.17941354 -57.67578125 92.37792969 C-60.52451965 90.65251392 -63.3862888 88.95042075 -66.25 87.25 C-67.14428711 86.69940918 -68.03857422 86.14881836 -68.95996094 85.58154297 C-70.22501465 84.83735107 -70.22501465 84.83735107 -71.515625 84.078125 C-72.26102539 83.62856445 -73.00642578 83.17900391 -73.77441406 82.71582031 C-76.01474585 81.77249657 -76.01474585 81.77249657 -78.37792969 82.64355469 C-81.44630474 84.23088167 -84.4491924 85.89074519 -87.4375 87.625 C-88.34133423 88.14634521 -88.34133423 88.14634521 -89.26342773 88.67822266 C-91.1774448 89.78235839 -93.08900677 90.89063997 -95 92 C-97.51866581 93.46212301 -100.03979235 94.91986418 -102.5625 96.375 C-103.67753906 97.02210937 -104.79257813 97.66921875 -105.94140625 98.3359375 C-106.95074219 98.88507813 -107.96007812 99.43421875 -109 100 C-109.83619873 100.4647876 -110.67239746 100.9295752 -111.53393555 101.40844727 C-115.16726104 102.27999936 -116.7387222 100.98262582 -119.89453125 99.08984375 C-121.01537109 98.42919922 -122.13621094 97.76855469 -123.29101562 97.08789062 C-124.46505835 96.3714453 -125.63888514 95.654646 -126.8125 94.9375 C-127.97362774 94.24639496 -129.13572981 93.55692412 -130.29882812 92.86914062 C-136.24929573 89.32614014 -142.14325818 85.69558248 -148 82 C-144.52018729 79.0881815 -141.00341505 76.72597437 -137.0546875 74.49609375 C-136.49204193 74.17660263 -135.92939636 73.85711151 -135.34970093 73.52793884 C-134.14897467 72.84676493 -132.94713195 72.16755581 -131.7442627 71.49017334 C-129.84516996 70.42070125 -127.94906098 69.34610907 -126.05371094 68.27001953 C-123.52386816 66.83378405 -120.99318503 65.3990487 -118.46191406 63.96533203 C-114.04477329 61.45771685 -109.64333688 58.92403505 -105.25 56.375 C-104.50854736 55.94525879 -103.76709473 55.51551758 -103.00317383 55.07275391 C-98.82672442 52.64916601 -94.65627409 50.21544341 -90.48828125 47.77734375 C-78.39412 40.70450469 -66.26267161 33.70267376 -54.09228516 26.76220703 C-47.3623581 22.92391401 -40.64144576 19.07100405 -33.9375 15.1875 C-33.19757813 14.76154541 -32.45765625 14.33559082 -31.6953125 13.89672852 C-27.70796526 11.59616653 -23.75582919 9.24881222 -19.828125 6.84765625 C-18.96840088 6.32985596 -18.10867676 5.81205566 -17.22290039 5.27856445 C-15.57825174 4.28702423 -13.9414152 3.28236347 -12.31420898 2.26245117 C-7.82910489 -0.42176753 -5.17064033 -1.91866528 0 0 Z " fill="#FDFDFD" transform="translate(173,22)"/>
<path d="M0 0 C0 27.39 0 54.78 0 83 C-26 98 -26 98 -35 103 C-35.33 89.47 -35.66 75.94 -36 62 C-50.86618527 70.36222922 -65.65818549 78.83155423 -80.3671875 87.46704102 C-83 89 -83 89 -86.60914612 90.57975769 C-88.49900884 91.58881998 -88.49900884 91.58881998 -90 93 C-90.73290741 96.08905442 -90.94920641 98.16140798 -90.88647461 101.25683594 C-90.89725037 102.08647354 -90.90802612 102.91611115 -90.91912842 103.77088928 C-90.94650958 106.50962226 -90.92464622 109.24563333 -90.90234375 111.984375 C-90.91172702 113.88439646 -90.92418368 115.78440504 -90.93959045 117.68438721 C-90.9718576 122.68236082 -90.96235909 127.67941822 -90.94421387 132.6774292 C-90.93306743 137.77854495 -90.9613482 142.87942461 -90.98632812 147.98046875 C-91.02951148 157.98714279 -91.0285816 167.99329164 -91 178 C-79.72066314 171.57041091 -68.44776396 165.1334101 -57.25 158.5625 C-51.82258947 155.37856274 -46.39326295 152.19779297 -40.921875 149.08984375 C-40.2112793 148.68499756 -39.50068359 148.28015137 -38.76855469 147.86303711 C-37 147 -37 147 -35 147 C-35.08902588 146.38592285 -35.17805176 145.7718457 -35.26977539 145.13916016 C-37.4044705 128.21101207 -37.4044705 128.21101207 -33.60546875 123.13769531 C-29.69636493 119.92482077 -25.10853384 118.03277504 -20.46923828 116.10058594 C-16.2662991 114.2272569 -12.41706306 111.77630984 -8.5 109.375 C-1.17596753 105 -1.17596753 105 0 105 C0.56025389 112.83857862 0.9843615 120.6723685 1.24349213 128.52601814 C1.36803611 132.17613219 1.53596344 135.81244266 1.81054688 139.45458984 C3.52656839 162.83035149 3.52656839 162.83035149 -2.22564697 169.63150024 C-7.94331821 174.21902494 -14.34332085 177.11763937 -21.11657715 179.82055664 C-24.70489044 181.28833036 -27.81988861 183.08849812 -31.1171875 185.12109375 C-33.03610652 186.22717308 -34.95536872 187.33265727 -36.875 188.4375 C-39.05990538 189.69659802 -41.24480092 190.95571311 -43.4296875 192.21484375 C-44.51475586 192.83987793 -45.59982422 193.46491211 -46.71777344 194.10888672 C-52.14659942 197.23680148 -57.57319281 200.36858448 -63 203.5 C-65.16665583 204.75001879 -67.3333225 206.00001878 -69.5 207.25 C-71.10875 208.178125 -71.10875 208.178125 -72.75 209.125 C-82.5 214.75 -82.5 214.75 -85.75268555 216.62646484 C-87.91049803 217.87141282 -90.06821353 219.1165289 -92.22583008 220.36181641 C-97.77716592 223.56552651 -103.33036541 226.7659363 -108.88671875 229.9609375 C-123.97468841 238.62711794 -123.97468841 238.62711794 -138.90307617 247.56396484 C-142.90035035 250 -142.90035035 250 -144 250 C-144.18682197 228.31242701 -144.32792585 206.62498654 -144.41449738 184.93677235 C-144.45576134 174.86667304 -144.51202479 164.79707348 -144.60351562 154.72729492 C-144.68321472 145.95117526 -144.73485644 137.17541747 -144.75270796 128.39894599 C-144.76314461 123.75096482 -144.78769545 119.10401894 -144.84584045 114.4563694 C-144.90012278 110.0820537 -144.91689745 105.70919998 -144.90486145 101.33457947 C-144.90706334 99.72887921 -144.92299196 98.12313036 -144.9536438 96.51772118 C-145.1742655 84.36703531 -145.1742655 84.36703531 -142.25927544 80.97351456 C-140.1974659 79.66023993 -138.29961818 78.80677445 -136 78 C-134.57324951 77.15526123 -134.57324951 77.15526123 -133.11767578 76.29345703 C-132.2357959 75.78669434 -131.35391602 75.27993164 -130.4453125 74.7578125 C-129.43154541 74.17418945 -128.41777832 73.59056641 -127.37329102 72.98925781 C-126.30135498 72.37405273 -125.22941895 71.75884766 -124.125 71.125 C-122.39583168 70.13001127 -120.66666466 69.13502025 -118.93757629 68.13989258 C-117.14890913 67.11071605 -115.35988379 66.08216438 -113.57080078 65.05371094 C-107.89785222 61.79190539 -102.23034872 58.5206564 -96.5625 55.25 C-94.93103027 54.30870239 -94.93103027 54.30870239 -93.26660156 53.34838867 C-80.89714992 46.21094153 -68.53215427 39.06668656 -56.20239258 31.86083984 C-46.70421223 26.31037602 -37.18720652 20.79679434 -27.62646484 15.35473633 C-23.24149929 12.85754276 -18.86547583 10.34647288 -14.50390625 7.80859375 C-13.17999878 7.03841919 -13.17999878 7.03841919 -11.8293457 6.25268555 C-10.1431882 5.27035716 -8.45808295 4.28621976 -6.77416992 3.30004883 C-6.0288501 2.86587646 -5.28353027 2.4317041 -4.515625 1.984375 C-3.85852539 1.59991211 -3.20142578 1.21544922 -2.52441406 0.81933594 C-1 0 -1 0 0 0 Z " fill="#FEFEFE" transform="translate(321,117)"/>
<path d="M0 0 C2.65527344 1.25244141 2.65527344 1.25244141 5.359375 2.8515625 C6.88884766 3.74584961 6.88884766 3.74584961 8.44921875 4.65820312 C10.08310547 5.63176758 10.08310547 5.63176758 11.75 6.625 C12.90697352 7.30502178 14.06453713 7.98404047 15.22265625 8.66210938 C17.62665148 10.07067324 20.02805773 11.48350641 22.42773438 12.89941406 C27.9283488 16.14016978 33.46603409 19.31666323 39 22.5 C41.16684034 23.74969892 43.3335065 24.99969989 45.5 26.25 C46.5725 26.86875 47.645 27.4875 48.75 28.125 C84.5 48.75 84.5 48.75 87.74951172 50.62475586 C89.91776264 51.8756448 92.08605697 53.12645852 94.25439453 54.37719727 C99.64717915 57.48798335 105.03922093 60.60004238 110.4296875 63.71484375 C125.27752432 72.2920195 140.15371036 80.8183353 155.04760742 89.31518555 C158.36584474 91.20877322 161.68292078 93.1043844 165 95 C165.39738269 120.38184651 165.69702623 145.76322602 165.88080692 171.14755821 C165.96841488 182.93455448 166.0878118 194.71961656 166.2824707 206.50537109 C166.45208696 216.7798125 166.56162709 227.05285329 166.59950441 237.32865584 C166.62164398 242.76896762 166.67352646 248.20527336 166.79741096 253.64429855 C166.91318801 258.76909654 166.94833485 263.8882587 166.92283058 269.01424026 C166.9274921 270.89059408 166.96111883 272.76714409 167.02649307 274.6423645 C167.40932291 286.19430725 167.40932291 286.19430725 165 291 C160.85190602 295.3013615 155.4988726 297.73016119 150.08189952 300.06958318 C147.0951725 301.40437433 144.36727374 303.04240512 141.56640625 304.73046875 C139.56553379 305.88355831 137.56422606 307.03589289 135.5625 308.1875 C133.31379049 309.4830528 131.06509292 310.77862632 128.81640625 312.07421875 C127.68734863 312.72438965 126.55829102 313.37456055 125.39501953 314.04443359 C119.9283002 317.19332054 114.46425113 320.34683264 109 323.5 C106.83334689 324.7500235 104.66668021 326.00002347 102.5 327.25 C101.4275 327.86875 100.355 328.4875 99.25 329.125 C87.33333333 336 75.41666667 342.875 63.5 349.75 C62.42709717 350.3689917 61.35419434 350.9879834 60.2487793 351.62573242 C58.08621417 352.8733474 55.92361661 354.12090616 53.76098633 355.3684082 C47.16975011 359.17064351 40.57946533 362.97451656 33.9909668 366.78149414 C31.81027764 368.03968941 29.62817462 369.29543777 27.44458008 370.54858398 C22.22506573 373.54546678 17.02946092 376.57204638 11.875 379.6796875 C10.43314331 380.53687378 10.43314331 380.53687378 8.9621582 381.41137695 C7.16016215 382.48369541 5.36641757 383.57004885 3.58276367 384.67260742 C2.38744019 385.37800659 2.38744019 385.37800659 1.16796875 386.09765625 C0.47985107 386.51539307 -0.2082666 386.93312988 -0.91723633 387.36352539 C-4.60365229 388.4900623 -7.23156313 386.3994511 -10.48168945 384.70996094 C-11.35011475 384.22301758 -12.21854004 383.73607422 -13.11328125 383.234375 C-14.59526001 382.40498413 -14.59526001 382.40498413 -16.10717773 381.55883789 C-17.69381226 380.66346313 -17.69381226 380.66346313 -19.3125 379.75 C-20.42117432 379.12665771 -21.52984863 378.50331543 -22.67211914 377.86108398 C-32.13940877 372.52126695 -41.53299965 367.05876975 -50.91015625 361.5625 C-57.21570419 357.8678669 -63.54294436 354.21147319 -69.875 350.5625 C-70.95515381 349.93996338 -72.03530762 349.31742676 -73.14819336 348.67602539 C-75.33796334 347.41423174 -77.52782355 346.15259466 -79.71777344 344.89111328 C-85.14659946 341.76319849 -90.57316556 338.63136837 -96 335.5 C-97.61068359 334.5709082 -97.61068359 334.5709082 -99.25390625 333.62304688 C-104.64687516 330.51221667 -110.03906364 327.40004851 -115.4296875 324.28515625 C-124.4460891 319.07681821 -133.46383013 313.87126785 -142.5078125 308.7109375 C-143.13517303 308.3529155 -143.76253357 307.99489349 -144.40890503 307.62602234 C-147.43417222 305.89999059 -150.46030302 304.17549909 -153.48779297 302.45336914 C-154.58494629 301.82809326 -155.68209961 301.20281738 -156.8125 300.55859375 C-157.76769531 300.01517334 -158.72289062 299.47175293 -159.70703125 298.91186523 C-160.79371094 298.28094971 -161.88039062 297.65003418 -163 297 C-163.81316838 296.71973245 -164.62633677 296.43946489 -165.46414661 296.15070438 C-168.69035429 294.79951377 -170.62688825 293.59451685 -173 291 C-174.5715821 284.87638616 -174.35794532 278.80175277 -174.27807617 272.51367188 C-174.28999338 270.60133368 -174.306179 268.68901803 -174.3263092 266.77674866 C-174.36761466 261.58816741 -174.3458467 256.40160817 -174.31032348 251.21305275 C-174.28127428 245.78257984 -174.30183187 240.35225726 -174.31477356 234.92175293 C-174.32839035 225.80216763 -174.30053641 216.68339774 -174.2487793 207.56396484 C-174.18951414 197.02176876 -174.19834456 186.48127182 -174.24312609 175.93904257 C-174.2844189 165.79619522 -174.27497099 155.65398467 -174.24328041 145.51112366 C-174.23083987 141.19527091 -174.23665075 136.88001183 -174.25722313 132.56419373 C-174.27933715 127.48106835 -174.25717826 122.40001049 -174.20090294 117.31716728 C-174.18741002 115.45238862 -174.1892058 113.58742708 -174.20743179 111.72268867 C-174.33116359 97.63614716 -174.33116359 97.63614716 -171.05756569 93.61253357 C-168.74046543 92.03216401 -166.61200275 90.99886791 -164 90 C-162.66521495 89.25828733 -161.33893843 88.50073991 -160.02734375 87.71875 C-158.66571265 86.97613299 -157.30235109 86.23668227 -155.9375 85.5 C-148.76523937 81.57092752 -141.67908398 77.51227393 -134.625 73.375 C-125.82246134 68.21620757 -116.98866947 63.11537856 -108.125 58.0625 C-95.79950519 51.03439327 -83.50277637 43.95759395 -71.21777344 36.85888672 C-66.89638733 34.36245016 -62.57349943 31.86862118 -58.25048828 29.375 C-56.0951069 28.13169753 -53.93983227 26.88820997 -51.78466797 25.64453125 C-46.76285179 22.74665642 -41.74041451 19.84987589 -36.71557617 16.95724487 C-34.94954478 15.94052802 -33.18372569 14.92344342 -31.41796875 13.90625 C-29.21265845 12.63599127 -27.00695784 11.36640982 -24.80078125 10.09765625 C-23.79402344 9.51757812 -22.78726563 8.9375 -21.75 8.33984375 C-20.78320312 7.7866748 -19.81640625 7.23350586 -18.8203125 6.66357422 C-16.93512845 5.55158979 -15.07494668 4.39612755 -13.2421875 3.19970703 C-12.37851563 2.64009277 -11.51484375 2.08047852 -10.625 1.50390625 C-9.87476563 0.99802979 -9.12453125 0.49215332 -8.3515625 -0.02905273 C-5.14447624 -1.35324107 -3.3196102 -0.90972646 0 0 Z M-8.03125 8.3515625 C-9.19836316 9.09253532 -10.35388513 9.85194466 -11.5 10.625 C-12.84332826 11.48057716 -14.18848453 12.33328888 -15.53515625 13.18359375 C-16.25590332 13.64362793 -16.97665039 14.10366211 -17.71923828 14.57763672 C-21.72000535 17.07265587 -25.832621 19.36931022 -29.9375 21.6875 C-37.61570031 26.04989062 -45.25517974 30.4739863 -52.875 34.9375 C-61.7743615 40.14660249 -70.72360872 45.2588737 -79.70874023 50.31835938 C-90.79380937 56.56411163 -101.79199284 62.95586008 -112.77734375 69.375 C-114.80989039 70.56250931 -116.84244255 71.75000919 -118.875 72.9375 C-119.88401367 73.52732666 -120.89302734 74.11715332 -121.93261719 74.72485352 C-129.46081924 79.11911885 -137.01853486 83.45932039 -144.61083984 87.74194336 C-146.15836835 88.61966275 -147.69495127 89.51704887 -149.2182436 90.43618774 C-152 92 -152 92 -155.28205395 93.39915466 C-159.29132549 95.3264148 -161.82517024 96.85906068 -165 100 C-166.90952362 106.01262504 -166.6499967 111.8205105 -166.47583008 118.07421875 C-166.47216008 119.91773721 -166.47422743 121.76127466 -166.48158264 123.6047821 C-166.48530539 128.59549464 -166.40901751 133.58212619 -166.31812119 138.57189178 C-166.23672005 143.79136824 -166.22920761 149.01094378 -166.21379089 154.23095703 C-166.17342275 164.10910417 -166.0667997 173.98537561 -165.93624753 183.8626976 C-165.79081898 195.11028736 -165.71943444 206.35796787 -165.65420687 217.60626411 C-165.5184096 240.73854839 -165.28982805 263.869169 -165 287 C-164.33865114 287.37333182 -163.67730228 287.74666365 -162.99591255 288.13130856 C-159.97118797 289.83904239 -156.94677326 291.5473243 -153.92236328 293.25561523 C-152.88199417 293.84289146 -151.84162506 294.43016769 -150.76972961 295.03524017 C-143.77116961 298.98893834 -136.8027354 302.98585333 -129.875 307.0625 C-122.44072542 311.41817884 -114.98846173 315.73814664 -107.5 320 C-100.01151656 324.26186572 -92.56029448 328.58354185 -85.125 332.9375 C-76.22555376 338.14646004 -67.27639378 343.2588723 -58.29125977 348.31835938 C-52.36248643 351.65885721 -46.45069498 355.02597099 -40.5625 358.4375 C-39.81685791 358.86877197 -39.07121582 359.30004395 -38.30297852 359.74438477 C-33.73950631 362.39051284 -29.19561104 365.06783897 -24.66015625 367.76171875 C-23.57597412 368.40246338 -22.49179199 369.04320801 -21.37475586 369.70336914 C-19.24826388 370.96079671 -17.12522301 372.22408359 -15.00610352 373.49389648 C-13.55288696 374.35156616 -13.55288696 374.35156616 -12.0703125 375.2265625 C-11.21195801 375.73783691 -10.35360352 376.24911133 -9.46923828 376.77587891 C-6.8993179 378.04991299 -4.85349249 378.72646132 -2 379 C0.57530555 377.77802821 2.80151503 376.52524915 5.1875 375 C6.71242543 374.0645841 8.23854637 373.13111538 9.765625 372.19921875 C10.60029297 371.68536621 11.43496094 371.17151367 12.29492188 370.64208984 C17.29039762 367.60963769 22.36920301 364.72097913 27.4375 361.8125 C29.68636935 360.51722467 31.93506498 359.22164771 34.18359375 357.92578125 C35.31265137 357.27561035 36.44170898 356.62543945 37.60498047 355.95556641 C43.0716998 352.80667946 48.53574887 349.65316736 54 346.5 C56.16665311 345.2499765 58.33331979 343.99997653 60.5 342.75 C61.5725 342.13125 62.645 341.5125 63.75 340.875 C99.5 320.25 99.5 320.25 102.75317383 318.37329102 C104.90940213 317.12923208 107.06549049 315.88493058 109.22143555 314.64038086 C114.21406952 311.75869341 119.20787516 308.87912878 124.20706177 306.00881958 C125.95024732 305.0078019 127.69296372 304.00597217 129.43554688 303.00390625 C131.60129618 301.75881961 133.76788871 300.5151979 135.93554688 299.2734375 C137.8830415 298.15303012 139.81999621 297.01399717 141.74326801 295.85250092 C145 294 145 294 148.38199902 292.53696442 C152.35369327 290.63013611 154.86025605 289.11544198 158 286 C159.9035915 280.01546861 159.65014711 274.2426422 159.47583008 268.01757812 C159.47216004 266.18391177 159.47422751 264.35022632 159.48158264 262.51657104 C159.48530526 257.55270796 159.40901985 252.59294828 159.31812119 247.63003731 C159.23671768 242.43858926 159.22920743 237.24704149 159.21379089 232.05505371 C159.17342341 222.23002562 159.06680137 212.40688346 158.93624753 202.58268499 C158.79081682 191.39555503 158.71943392 180.2083338 158.65420687 169.02049351 C158.51841113 146.0126177 158.28983096 123.00641462 158 100 C157.21463867 99.55197021 156.42927734 99.10394043 155.62011719 98.64233398 C152.64524653 96.94487436 149.67067451 95.24689358 146.69628906 93.54858398 C145.42036264 92.82019197 144.14432491 92.09199489 142.86816406 91.36401367 C134.55259242 86.62020922 126.26037667 81.83954509 118 77 C109.40371033 71.9700035 100.7768943 66.99611818 92.125 62.0625 C79.79974804 55.03396493 67.50277933 47.95759566 55.21777344 40.85888672 C51.98175371 38.98945924 48.74494423 37.12140745 45.5078125 35.25390625 C44.43249268 34.63354492 43.35717285 34.01318359 42.24926758 33.37402344 C40.09827013 32.13343012 37.94706858 30.89319061 35.7956543 29.65332031 C30.7213498 26.72816476 25.64962676 23.79879142 20.5866394 20.85409546 C18.19684332 19.4645137 15.80563164 18.07737828 13.41430664 16.69042969 C11.72859411 15.71136747 10.04493413 14.72877394 8.36132812 13.74609375 C7.33845703 13.153125 6.31558594 12.56015625 5.26171875 11.94921875 C4.36412842 11.42674561 3.46653809 10.90427246 2.54174805 10.3659668 C-2.57687047 7.27988939 -2.57687047 7.27988939 -8.03125 8.3515625 Z " fill="#FAFAFA" transform="translate(173,1)"/>
<path d="M0 0 C3.81544924 1.4878342 7.28337503 3.19979318 10.83984375 5.23828125 C11.40208145 5.55975632 11.96431915 5.88123138 12.54359436 6.21244812 C13.74047108 6.89766985 14.93645226 7.5844579 16.1315918 8.27270508 C18.45339468 9.60953872 20.77895361 10.93966224 23.10968018 12.26087952 C24.32693175 12.96699194 25.5313814 13.69555061 26.72332764 14.44358826 C30.66023894 16.87079602 34.38786244 18.50707074 38.79980469 19.92016602 C45.46563994 22.37489779 50.9845285 24.93101597 55 31 C59.13806829 43.46395694 57.15079679 58.4153281 56.51062012 71.29541016 C56.28409193 76.33489776 56.18479006 81.37679369 56.07421875 86.41992188 C55.83939955 96.28632658 55.46485684 106.14193985 55 116 C51.04208743 114.72032718 47.5888588 113.35756941 44.0078125 111.234375 C43.06623291 110.68031982 42.12465332 110.12626465 41.15454102 109.55541992 C40.15479248 108.95963135 39.15504395 108.36384277 38.125 107.75 C35.9910193 106.49065852 33.85690039 105.23155121 31.72265625 103.97265625 C30.07354248 102.99643311 30.07354248 102.99643311 28.39111328 102.00048828 C24.97546849 99.98552835 21.55033429 97.98781697 18.12109375 95.99609375 C17.02200684 95.35768555 15.92291992 94.71927734 14.79052734 94.06152344 C12.66225758 92.82596159 10.53368373 91.59092338 8.40478516 90.35644531 C7.44749512 89.79924805 6.49020508 89.24205078 5.50390625 88.66796875 C4.65642822 88.17578857 3.8089502 87.6836084 2.93579102 87.17651367 C1 86 1 86 0 85 C-0.09511266 82.35261911 -0.12555635 79.73140999 -0.11352539 77.08374023 C-0.11367142 76.25454071 -0.11381744 75.42534119 -0.1139679 74.5710144 C-0.11326851 71.81684802 -0.10547493 69.06274839 -0.09765625 66.30859375 C-0.09579216 64.40430234 -0.09436822 62.50001045 -0.09336853 60.59571838 C-0.08954263 55.57332037 -0.07971173 50.55095108 -0.06866455 45.52856445 C-0.05845198 40.4077188 -0.05387124 35.28686852 -0.04882812 30.16601562 C-0.03808953 20.11066443 -0.02101224 10.0553346 0 0 Z " fill="#010101" transform="translate(71,189)"/>
<path d="M0 0 C1.50433594 0.87011719 1.50433594 0.87011719 3.0390625 1.7578125 C3.78317383 2.16805664 4.52728516 2.57830078 5.29394531 3.00097656 C8.1153481 4.57879753 10.88895805 6.22496379 13.6640625 7.8828125 C15.81307094 9.1522802 17.96284267 10.42045643 20.11328125 11.6875 C21.24040527 12.35233398 22.3675293 13.01716797 23.52880859 13.70214844 C29.4773817 17.19641225 35.48046268 20.5960315 41.4765625 24.0078125 C51.71495284 29.83932999 61.90995939 35.73823123 72.0390625 41.7578125 C69.66401278 44.38835925 67.15680518 45.96845754 64.06640625 47.68359375 C63.08349609 48.23337891 62.10058594 48.78316406 61.08789062 49.34960938 C60.06115234 49.91744141 59.03441406 50.48527344 57.9765625 51.0703125 C55.96410283 52.19007568 53.95237796 53.31116055 51.94140625 54.43359375 C50.9551123 54.97967285 49.96881836 55.52575195 48.95263672 56.08837891 C45.30715583 58.17718386 41.79091253 60.44819418 38.29516602 62.77807617 C35.41236769 64.02996122 34.00005091 63.69652408 31.0390625 62.7578125 C28.57803525 61.44409689 26.22435162 60.09019929 23.8515625 58.6328125 C22.32632148 57.71611445 20.80022301 56.8008421 19.2734375 55.88671875 C18.43876953 55.38543457 17.60410156 54.88415039 16.74414062 54.36767578 C11.72745247 51.38211245 6.66192524 48.48101349 1.6015625 45.5703125 C-0.61331252 44.29432512 -2.82815573 43.01828251 -5.04296875 41.7421875 C-6.16783691 41.09443359 -7.29270508 40.44667969 -8.45166016 39.77929688 C-13.9130984 36.63389557 -19.37156709 33.48334513 -24.83035278 30.33334351 C-27.61596345 28.72595313 -30.40173834 27.11884743 -33.1875 25.51171875 C-34.77864583 24.59375 -36.36979167 23.67578125 -37.9609375 22.7578125 C-37.9609375 21.7678125 -37.9609375 20.7778125 -37.9609375 19.7578125 C-36.90350342 19.1687915 -36.90350342 19.1687915 -35.82470703 18.56787109 C-32.5775193 16.75784983 -29.33172315 14.94534673 -26.0859375 13.1328125 C-24.97734375 12.51535156 -23.86875 11.89789063 -22.7265625 11.26171875 C-21.63085938 10.64941406 -20.53515625 10.03710938 -19.40625 9.40625 C-18.31731445 8.80135742 -17.22837891 8.19646484 -16.10644531 7.57324219 C-13.16224318 5.87399606 -10.35317912 4.0412348 -7.515625 2.171875 C-3.3954606 -0.27772897 -3.3954606 -0.27772897 0 0 Z " fill="#030303" transform="translate(170.9609375,61.2421875)"/>
</svg>
