<?xml version="1.0" encoding="UTF-8"?>
<svg version="1.1" xmlns="http://www.w3.org/2000/svg" width="338" height="390">
<path d="M0 0 C1.91780091 0.95190608 3.83480168 1.90542428 5.75146484 2.85961914 C6.81908051 3.39043594 7.88669617 3.92125275 8.98666382 4.46815491 C12.62653202 6.3185008 16.13262899 8.32603747 19.625 10.4375 C21.08656818 11.3084194 22.54885737 12.17812951 24.01171875 13.046875 C25.19773682 13.75166992 25.19773682 13.75166992 26.40771484 14.47070312 C31.39604235 17.41352508 36.41854408 20.29733531 41.4375 23.1875 C42.54367676 23.82486084 43.64985352 24.46222168 44.78955078 25.11889648 C47.06123665 26.42762416 49.33304755 27.73613484 51.60498047 29.04443359 C57.0716998 32.19332054 62.53574887 35.34683264 68 38.5 C70.16665311 39.7500235 72.33331979 41.00002347 74.5 42.25 C87.5 49.75 87.5 49.75 90.75292969 51.62670898 C92.90980903 52.87104998 95.06670992 54.11535364 97.22363281 55.35961914 C102.20991218 58.2361158 107.1960071 61.11293001 112.18127441 63.99118042 C113.91636728 64.99291394 115.65153257 65.99452189 117.38671875 66.99609375 C119.54050668 68.23933719 121.69416471 69.48280572 123.84765625 70.7265625 C131.55252509 75.17360093 139.27577895 79.5861594 147 84 C147 140.43 147 196.86 147 255 C131.0615142 247.0307571 131.0615142 247.0307571 125.25 243.5 C123.80669256 242.63814459 122.36262956 241.77755369 120.91796875 240.91796875 C120.1398584 240.45438965 119.36174805 239.99081055 118.56005859 239.51318359 C113.58450931 236.57226671 108.57129104 233.69630438 103.5625 230.8125 C102.45616211 230.17505859 101.34982422 229.53761719 100.20996094 228.88085938 C97.93844323 227.57220371 95.66679503 226.26377451 93.39501953 224.95556641 C87.9283002 221.80667946 82.46425113 218.65316736 77 215.5 C74.83334689 214.2499765 72.66668021 212.99997653 70.5 211.75 C66.16666667 209.25 61.83333333 206.75 57.5 204.25 C56.42637207 203.63060547 55.35274414 203.01121094 54.24658203 202.37304688 C52.09128689 201.1295949 49.93601327 199.88610564 47.78076172 198.64257812 C42.77662326 195.75537125 37.7722948 192.8684957 32.76715088 189.98303223 C31.01658759 188.97380896 29.26609589 187.96446164 27.515625 186.95507812 C25.33607835 185.6983234 23.15640168 184.44179414 20.9765625 183.18554688 C19.03387908 182.06524941 17.09947803 180.93038948 15.1761055 179.77725315 C12.06575714 177.95144385 12.06575714 177.95144385 8.8422966 176.71285152 C5.32718364 175.14338862 2.78687025 173.67172778 0 171 C-1.76185496 165.53049898 -1.52159864 160.17840177 -1.36230469 154.50805664 C-1.35891726 152.82231896 -1.36082479 151.13656359 -1.36761475 149.45083618 C-1.37105221 144.88578648 -1.30061552 140.32453558 -1.21672726 135.76036763 C-1.1416056 130.98663667 -1.1346546 126.2128142 -1.12042236 121.43858337 C-1.08315418 112.40336488 -0.98472589 103.36989298 -0.86422849 94.33544296 C-0.73000309 84.04793655 -0.66409746 73.76034579 -0.60388327 63.47218144 C-0.47851997 42.31381349 -0.26751158 21.15701685 0 0 Z M56 77 C56 104.06 56 131.12 56 159 C64.25 163.62 72.5 168.24 81 173 C85.44845633 175.56827587 89.88972658 178.13922722 94.3125 180.75 C96.28710067 181.91257961 98.26233287 183.07408747 100.23828125 184.234375 C101.06368408 184.72131836 101.88908691 185.20826172 102.73950195 185.70996094 C104.79645807 186.88384107 106.87795305 187.95037826 109 189 C109.5588801 178.55310311 109.98379015 168.10980936 110.24349213 157.65095329 C110.36823997 152.79200697 110.53684807 147.9433488 110.81054688 143.09033203 C112.85005288 122.66988983 112.85005288 122.66988983 106.79751587 103.95291138 C101.2263005 99.0755184 94.90468732 96.43923682 87.95782471 94.06359863 C83.99440212 92.63839895 80.61594927 90.63103236 77.07421875 88.38671875 C74.94559572 87.15315698 72.8167051 85.92005681 70.6875 84.6875 C69.58083984 84.04361328 68.47417969 83.39972656 67.33398438 82.73632812 C65.75133789 81.82077148 65.75133789 81.82077148 64.13671875 80.88671875 C63.21592529 80.35264404 62.29513184 79.81856934 61.34643555 79.26831055 C58.9580849 77.88996345 58.9580849 77.88996345 56 77 Z " fill="#000000" transform="translate(16,115)"/>
<path d="M0 0 C0 28.71 0 57.42 0 87 C-8.25 91.62 -16.5 96.24 -25 101 C-28.96 103.31 -32.92 105.62 -37 108 C-37.33 108 -37.66 108 -38 108 C-38.33 94.47 -38.66 80.94 -39 67 C-44.135625 70.0009375 -44.135625 70.0009375 -49.375 73.0625 C-52.13220052 74.6701594 -54.88997768 76.27681954 -57.64819336 77.88273621 C-60.65193448 79.63177455 -63.654935 81.38205501 -66.65625 83.13525391 C-69.64915044 84.88322595 -72.64463606 86.62669011 -75.64190674 88.36715698 C-77.3611197 89.36692821 -79.0777889 90.3710695 -80.79443359 91.37524414 C-81.83937988 91.98102295 -82.88432617 92.58680176 -83.9609375 93.2109375 C-84.88696777 93.75024902 -85.81299805 94.28956055 -86.76708984 94.84521484 C-89 96 -89 96 -91 96 C-91 123.06 -91 150.12 -91 178 C-82.42 173.05 -73.84 168.1 -65 163 C-56.80859375 159.02734375 -56.80859375 159.02734375 -53.52148438 157.46557617 C-44.03491881 153.2329768 -44.03491881 153.2329768 -38.07470703 145.35742188 C-37.67454019 141.42998338 -37.90993659 137.71120642 -38.25512695 133.78759766 C-38.68664969 126.87719859 -38.68664969 126.87719859 -36.60644531 124.21972656 C-32.39695178 120.99968986 -27.53490143 119.10702124 -22.64599609 117.14794922 C-18.01166054 115.13737109 -13.75922326 112.47572327 -9.4375 109.875 C-7.8343485 108.93094967 -6.22907115 107.99049433 -4.62109375 107.0546875 C-3.9448999 106.65749512 -3.26870605 106.26030273 -2.57202148 105.85107422 C-1 105 -1 105 0 105 C0 126.78 0 148.56 0 171 C-8.25 175.62 -16.5 180.24 -25 185 C-31.24149408 188.65197777 -31.24149408 188.65197777 -37.46875 192.328125 C-43.09867855 195.66001908 -48.7691917 198.92147673 -54.4375 202.1875 C-55.54472412 202.82550537 -56.65194824 203.46351074 -57.79272461 204.12084961 C-60.06337068 205.42889477 -62.33412358 206.73675448 -64.60498047 208.04443359 C-70.0716998 211.19332054 -75.53574887 214.34683264 -81 217.5 C-83.16665311 218.7500235 -85.33331979 220.00002347 -87.5 221.25 C-88.5725 221.86875 -89.645 222.4875 -90.75 223.125 C-94 225 -97.25 226.875 -100.5 228.75 C-102.11177124 229.67993774 -102.11177124 229.67993774 -103.75610352 230.62866211 C-105.90226227 231.86673743 -108.04858141 233.10453478 -110.19506836 234.34204102 C-115.30524525 237.28864907 -120.41364143 240.23823494 -125.51651001 243.19747925 C-127.94551977 244.60588062 -130.37543188 246.01272093 -132.80541992 247.41943359 C-134.53457851 248.42132206 -136.2624178 249.42548641 -137.99023438 250.4296875 C-139.02599609 251.02910156 -140.06175781 251.62851562 -141.12890625 252.24609375 C-142.04744385 252.77904053 -142.96598145 253.3119873 -143.91235352 253.86108398 C-146 255 -146 255 -147 255 C-147 198.57 -147 142.14 -147 84 C-137.76 78.72 -128.52 73.44 -119 68 C-111.4038307 63.62315959 -103.80851981 59.24508723 -96.21777344 54.85888672 C-90.81329355 51.73675395 -85.40652588 48.61858796 -80 45.5 C-77.8333225 44.25001878 -75.66665583 43.00001879 -73.5 41.75 C-69.16666667 39.25 -64.83333333 36.75 -60.5 34.25 C-59.4265332 33.63068604 -58.35306641 33.01137207 -57.24707031 32.37329102 C-55.09019097 31.12895002 -52.93329008 29.88464636 -50.77636719 28.64038086 C-45.2097733 25.42911098 -39.64359712 22.21711987 -34.078125 19.00390625 C-28.65039617 15.87040779 -23.22151268 12.73892087 -17.79150391 9.609375 C-16.03557631 8.59703682 -14.27999201 7.5841027 -12.52490234 6.5703125 C-10.49691304 5.39903887 -8.46750876 4.23026876 -6.4375 3.0625 C-4.85775391 2.15177734 -4.85775391 2.15177734 -3.24609375 1.22265625 C-1 0 -1 0 0 0 Z " fill="#000000" transform="translate(323,115)"/>
<path d="M0 0 C2.05025941 1.35224052 4.06915326 2.75268753 6.0625 4.1875 C7.90016554 5.30581113 9.76201379 6.37414954 11.62890625 7.44287109 C13.79113358 8.68451065 15.93320048 9.95653589 18.07421875 11.234375 C23.85207766 14.66788562 29.67569348 18.02107434 35.5 21.375 C37.15926514 22.33104126 37.15926514 22.33104126 38.85205078 23.30639648 C41.12373665 24.61512416 43.39554755 25.92363484 45.66748047 27.23193359 C51.1341998 30.38082054 56.59824887 33.53433264 62.0625 36.6875 C64.22915311 37.9375235 66.39581979 39.18752347 68.5625 40.4375 C81.5625 47.9375 81.5625 47.9375 84.81542969 49.81420898 C86.97230903 51.05854998 89.12920992 52.30285364 91.28613281 53.54711914 C96.27284826 56.42386737 101.25937102 59.30094738 106.24508667 62.1794281 C123.63310073 72.21951808 123.63310073 72.21951808 141.0625 82.1875 C139.79422274 85.99233177 138.63128831 86.29734818 135.19140625 88.234375 C134.15564453 88.82412109 133.11988281 89.41386719 132.05273438 90.02148438 C130.92158203 90.65376953 129.79042969 91.28605469 128.625 91.9375 C127.44411359 92.60645566 126.26378302 93.2763934 125.08398438 93.94726562 C122.62991044 95.34171893 120.17348596 96.73189313 117.71533203 98.11914062 C112.14170557 101.26917131 106.60389901 104.48123849 101.0625 107.6875 C98.89861962 108.93651348 96.73455636 110.1852102 94.5703125 111.43359375 C92.9620459 112.36147705 92.9620459 112.36147705 91.32128906 113.30810547 C88.04550434 115.19730166 84.76894107 117.08514109 81.4921875 118.97265625 C71.04043728 124.99497371 60.59956147 131.03428996 50.1875 137.125 C37.9898847 144.25759017 25.73785874 151.29673283 13.43652344 158.24902344 C11.0317841 159.63061753 8.6569443 161.0344001 6.29003906 162.47753906 C5.35002548 163.04077377 5.35002548 163.04077377 4.39102173 163.61538696 C2.63593269 164.66844039 0.88923215 165.73543791 -0.85693359 166.80322266 C-4.28211275 168.34235452 -5.46387053 168.43409062 -8.9375 167.1875 C-10.91943359 166.29882812 -10.91943359 166.29882812 -12.8359375 165.21875 C-13.55595947 164.81664307 -14.27598145 164.41453613 -15.01782227 164.00024414 C-15.77506592 163.56703857 -16.53230957 163.13383301 -17.3125 162.6875 C-18.0974585 162.2433374 -18.88241699 161.7991748 -19.69116211 161.34155273 C-22.11177855 159.96569787 -24.52506549 158.57764138 -26.9375 157.1875 C-27.69208496 156.75711426 -28.44666992 156.32672852 -29.22412109 155.88330078 C-31.32278105 154.68333252 -33.41284728 153.46985096 -35.5 152.25 C-36.13663574 151.88519531 -36.77327148 151.52039063 -37.42919922 151.14453125 C-41.82162658 148.53512026 -41.82162658 148.53512026 -42.9375 145.1875 C-42.22730713 144.79481934 -41.51711426 144.40213867 -40.78540039 143.99755859 C-37.5213792 142.18985022 -34.26068366 140.37622108 -31 138.5625 C-29.88302734 137.94503906 -28.76605469 137.32757813 -27.61523438 136.69140625 C-21.19419579 133.11370147 -14.96711086 129.3944774 -8.9375 125.1875 C-9.93994751 124.6298999 -9.93994751 124.6298999 -10.96264648 124.06103516 C-33.33723794 111.60404806 -33.33723794 111.60404806 -42.375 106.25 C-43.01203857 105.87464111 -43.64907715 105.49928223 -44.30541992 105.11254883 C-48.15285862 102.84335563 -51.98916424 100.55652498 -55.81898499 98.25770569 C-58.17980189 96.84556355 -60.54806661 95.44623451 -62.91775513 94.04904175 C-64.08928457 93.3546008 -65.25770985 92.65489383 -66.42282104 91.94973755 C-68.06026605 90.95952777 -69.70964454 89.98913475 -71.359375 89.01953125 C-72.31424805 88.44952393 -73.26912109 87.8795166 -74.25292969 87.29223633 C-77.45959235 85.97265207 -78.69112483 86.06089535 -81.9375 87.1875 C-83.80460007 88.12482057 -85.63400557 89.13924901 -87.4296875 90.20703125 C-88.46480469 90.81740234 -89.49992187 91.42777344 -90.56640625 92.05664062 C-92.17322266 93.01860352 -92.17322266 93.01860352 -93.8125 94 C-96.94392885 95.85418545 -100.07550147 97.70807056 -103.20996094 99.55712891 C-104.84732043 100.53585131 -106.47439516 101.53257694 -108.07910156 102.56396484 C-112.33802534 105.24452732 -112.33802534 105.24452732 -115.27807617 104.96484375 C-118.32569859 104.0740304 -120.7806192 102.80504594 -123.54296875 101.23828125 C-124.60966797 100.63693359 -125.67636719 100.03558594 -126.77539062 99.41601562 C-127.88076172 98.78373047 -128.98613281 98.15144531 -130.125 97.5 C-131.21103516 96.88705078 -132.29707031 96.27410156 -133.41601562 95.64257812 C-139.98367939 91.92287426 -146.48702392 88.10674218 -152.9375 84.1875 C-150.53780318 81.53184213 -147.97305811 79.90751447 -144.87109375 78.140625 C-143.84177734 77.55087891 -142.81246094 76.96113281 -141.75195312 76.35351562 C-140.63755859 75.72123047 -139.52316406 75.08894531 -138.375 74.4375 C-137.20348539 73.76808653 -136.03226624 73.09815574 -134.86132812 72.42773438 C-132.42806166 71.03510003 -129.99353768 69.64470253 -127.55810547 68.25585938 C-122.00592407 65.08720234 -116.47269338 61.88570559 -110.9375 58.6875 C-108.77092291 57.43734475 -106.60425593 56.18734527 -104.4375 54.9375 C-103.365 54.31875 -102.2925 53.7 -101.1875 53.0625 C-91.4375 47.4375 -91.4375 47.4375 -88.18701172 45.56225586 C-86.02192929 44.31314482 -83.85689018 43.06395871 -81.69189453 41.81469727 C-76.25134294 38.67547691 -70.81002784 35.53759437 -65.3671875 32.40234375 C-55.69474565 26.82900365 -46.02475863 21.2525018 -36.39208984 15.6105957 C-34.36488264 14.42695997 -32.33403323 13.24953674 -30.29931641 12.07885742 C-25.8799777 9.53253996 -21.5319486 6.95732044 -17.3046875 4.1015625 C-6.46006254 -3.06002962 -6.46006254 -3.06002962 0 0 Z M-12.41796875 46.07421875 C-13.50013672 46.68330078 -14.58230469 47.29238281 -15.69726562 47.91992188 C-16.82841797 48.56509766 -17.95957031 49.21027344 -19.125 49.875 C-20.23681641 50.50083984 -21.34863281 51.12667969 -22.49414062 51.77148438 C-28.3995249 55.1105264 -34.21984294 58.53629775 -39.9375 62.1875 C-37.00774778 64.4750096 -33.99749635 66.38728792 -30.7734375 68.234375 C-29.74637695 68.82468506 -28.71931641 69.41499512 -27.66113281 70.02319336 C-26.55608398 70.65491455 -25.45103516 71.28663574 -24.3125 71.9375 C-23.15446556 72.60202168 -21.99659053 73.26682124 -20.83886719 73.93188477 C-18.42475476 75.31843374 -16.00995412 76.7037734 -13.59472656 78.08837891 C-8.8989624 80.78181779 -4.21152414 83.48960081 0.4753418 86.19848633 C2.68352866 87.47325423 4.89330607 88.74527128 7.10473633 90.0144043 C11.64389716 92.62053581 16.17150473 95.23245891 20.62890625 97.9765625 C21.27827148 98.36980713 21.92763672 98.76305176 22.59667969 99.16821289 C24.2144717 100.15234749 25.82080893 101.15525041 27.42578125 102.16015625 C29.97181784 103.43521165 29.97181784 103.43521165 32.3828125 102.6640625 C33.26710938 102.17679688 34.15140625 101.68953125 35.0625 101.1875 C35.68439209 100.85709717 36.30628418 100.52669434 36.94702148 100.1862793 C39.1892207 98.98498123 41.40782336 97.74684237 43.625 96.5 C44.41696777 96.05736816 45.20893555 95.61473633 46.02490234 95.15869141 C52.41521066 91.57685429 58.75897317 87.92017667 65.0625 84.1875 C62.56865208 81.39186225 59.81034919 79.75496596 56.55859375 77.921875 C55.43775391 77.28628662 54.31691406 76.65069824 53.16210938 75.99584961 C51.94140775 75.3097304 50.72070459 74.62361393 49.5 73.9375 C47.60329955 72.86409498 45.70761534 71.78890903 43.81192017 70.71372986 C42.51063164 69.97589924 41.20901229 69.2386518 39.90707397 68.50196838 C33.27105923 64.74610578 26.66477174 60.93983984 20.0625 57.125 C19.03310303 56.53106445 18.00370605 55.93712891 16.94311523 55.32519531 C15.95126221 54.7525293 14.95940918 54.17986328 13.9375 53.58984375 C12.97714844 53.0366748 12.01679688 52.48350586 11.02734375 51.91357422 C8.9272147 50.69092004 6.836974 49.45120774 4.75390625 48.19970703 C3.68011719 47.55759277 2.60632813 46.91547852 1.5 46.25390625 C0.52933594 45.66681885 -0.44132812 45.07973145 -1.44140625 44.47485352 C-5.98306862 42.13250359 -8.25016713 43.71692686 -12.41796875 46.07421875 Z " fill="#000000" transform="translate(174.9375,20.8125)"/>
<path d="M0 0 C2.98911346 1.59872281 5.29707728 3.57100358 7.890625 5.75390625 C10.55959841 7.36653111 13.32267639 8.79536865 16.078125 10.25390625 C24.23318874 14.75372773 32.2702569 19.45180426 40.3059082 24.16040039 C48.09726511 28.72117979 55.92256319 33.22034165 63.765625 37.69140625 C76.09111981 44.71951298 88.38784863 51.7963123 100.67285156 58.89501953 C104.99423767 61.39145609 109.31712557 63.88528507 113.64013672 66.37890625 C115.7955181 67.62220872 117.95079273 68.86569628 120.10595703 70.109375 C125.12777321 73.00724983 130.15021049 75.90403036 135.17504883 78.79666138 C136.94108022 79.81337823 138.70689931 80.83046283 140.47265625 81.84765625 C142.67796655 83.11791498 144.88366716 84.38749643 147.08984375 85.65625 C148.09660156 86.23632812 149.10335938 86.81640625 150.140625 87.4140625 C151.01203125 87.91558838 151.8834375 88.41711426 152.78125 88.93383789 C153.80734375 89.53446045 154.8334375 90.13508301 155.890625 90.75390625 C156.69511518 91.03162337 157.49960537 91.3093405 158.32847404 91.59547329 C161.5538907 92.95143576 163.50507869 94.16958152 165.890625 96.75390625 C167.53165203 102.85271987 167.40432314 108.922276 167.40673828 115.20507812 C167.44322345 117.11433697 167.48374157 119.02352237 167.52798462 120.93261719 C167.63337591 126.11503883 167.67330664 131.29595066 167.69492197 136.47933006 C167.71093244 139.72163136 167.74017092 142.96354163 167.77392197 146.20570374 C167.89040839 157.52990663 167.95077342 168.85295739 167.96337891 180.17773438 C167.97670269 190.71308357 168.11717289 201.24159264 168.31648457 211.77491331 C168.48182804 220.83360328 168.55394261 229.8900419 168.55545223 238.95023012 C168.55810751 244.35583193 168.59821926 249.75463362 168.73379898 255.15867615 C169.50569994 287.93637027 169.50569994 287.93637027 163.52672195 295.90410042 C157.90844493 300.80470514 151.75647925 303.54406403 144.70815086 305.79986858 C140.87604633 307.09745102 137.76195489 308.95649431 134.3359375 311.09375 C132.2297292 312.29395646 130.1229682 313.49319358 128.015625 314.69140625 C125.64534929 316.04212069 123.27572751 317.39397965 120.90625 318.74609375 C120.32015961 319.08046951 119.73406921 319.41484528 119.13021851 319.75935364 C109.76946269 325.10285335 100.44089324 330.50237545 91.10839844 335.89501953 C85.70391855 339.0171523 80.29715088 342.13531829 74.890625 345.25390625 C72.7239475 346.50388747 70.55728083 347.75388746 68.390625 349.00390625 C55.390625 356.50390625 55.390625 356.50390625 52.13720703 358.38085938 C49.98191189 359.62431135 47.82663827 360.86780061 45.67138672 362.11132812 C40.66724826 364.998535 35.6629198 367.88541055 30.65777588 370.77087402 C28.90721259 371.78009729 27.15672089 372.78944461 25.40625 373.79882812 C23.22670335 375.05558285 21.04702668 376.31211211 18.8671875 377.56835938 C17.866875 378.14521484 16.8665625 378.72207031 15.8359375 379.31640625 C14.85141602 379.868125 13.86689453 380.41984375 12.85253906 380.98828125 C9.8209284 382.73150962 9.8209284 382.73150962 6.88964844 384.95703125 C3.88399668 387.06557551 1.3979346 388.65551647 -2.109375 389.75390625 C-6.74327306 388.72610079 -10.20709978 386.38330572 -14.109375 383.75390625 C-15.93931459 382.70302753 -17.77518434 381.66239947 -19.6171875 380.6328125 C-21.49167552 379.53089508 -23.36399756 378.42528656 -25.234375 377.31640625 C-27.34601667 376.07494659 -29.45800794 374.83408143 -31.5703125 373.59375 C-32.64893555 372.95937012 -33.72755859 372.32499023 -34.83886719 371.67138672 C-40.16463366 368.54891957 -45.51089188 365.46225471 -50.859375 362.37890625 C-51.931875 361.76031738 -53.004375 361.14172852 -54.109375 360.50439453 C-62.73020854 355.53743269 -71.37076736 350.60542854 -80.0135498 345.67681885 C-89.05230743 340.52074142 -98.05196942 335.30080313 -107.03173828 330.04272461 C-114.69540118 325.56201018 -122.39644442 321.14896927 -130.109375 316.75390625 C-139.32134451 311.50370611 -148.51210415 306.21978298 -157.671875 300.87890625 C-158.68314453 300.28980469 -159.69441406 299.70070313 -160.73632812 299.09375 C-164.246704 297.04257964 -167.7257188 295.00967705 -171.109375 292.75390625 C-171.44126556 290.14169596 -171.57455395 287.75904054 -171.58453369 285.13977051 C-171.59909158 284.34474105 -171.61364948 283.5497116 -171.62864852 282.73059034 C-171.67359584 280.05151709 -171.69674076 277.37270484 -171.71972656 274.69335938 C-171.74669658 272.77826447 -171.77474746 270.86318452 -171.80380249 268.94812012 C-171.8929133 262.64396728 -171.94865822 256.33971431 -172 250.03515625 C-172.00924342 248.96274878 -172.01848684 247.8903413 -172.02801037 246.78543663 C-172.11474221 236.67108195 -172.19013172 226.55671107 -172.23657608 216.44208527 C-172.29659882 203.50345437 -172.41359864 190.56820114 -172.60985208 177.630898 C-172.7431331 168.53524852 -172.81108807 159.4405065 -172.83089042 150.34390974 C-172.84444868 144.91049786 -172.88650139 139.48082707 -172.99848175 134.04847717 C-173.10252629 128.93166261 -173.12537528 123.82074654 -173.08708572 118.70307922 C-173.08697304 116.83002545 -173.11576135 114.95670229 -173.17624283 113.08462524 C-173.52857996 101.55459804 -173.52857996 101.55459804 -171.109375 96.75390625 C-166.9575334 92.45718611 -161.60643335 90.02626002 -156.19050741 87.68483448 C-153.20458907 86.34917911 -150.47642803 84.71113651 -147.67578125 83.0234375 C-145.67490879 81.87034794 -143.67360106 80.71801336 -141.671875 79.56640625 C-139.42316549 78.27085345 -137.17446792 76.97527993 -134.92578125 75.6796875 C-133.79672363 75.0295166 -132.66766602 74.3793457 -131.50439453 73.70947266 C-126.0376752 70.56058571 -120.57362613 67.40707361 -115.109375 64.25390625 C-112.94272189 63.00388275 -110.77605521 61.75388278 -108.609375 60.50390625 C-107.536875 59.88515625 -106.464375 59.26640625 -105.359375 58.62890625 C-93.44270833 51.75390625 -81.52604167 44.87890625 -69.609375 38.00390625 C-68.53647217 37.38491455 -67.46356934 36.76592285 -66.3581543 36.12817383 C-64.19558917 34.88055885 -62.03299161 33.63300009 -59.87036133 32.38549805 C-53.27935053 28.58339277 -46.68851867 24.78098476 -40.10180664 20.97143555 C-37.91833249 19.71283698 -35.73136769 18.46027264 -33.54077148 17.21411133 C-28.33363584 14.24500869 -23.2155495 11.21029554 -18.1953125 7.93359375 C-5.1932127 -0.4110206 -5.1932127 -0.4110206 0 0 Z M-9.02734375 12.32421875 C-10.0217749 12.88359131 -11.01620605 13.44296387 -12.04077148 14.01928711 C-13.11528564 14.63296143 -14.1897998 15.24663574 -15.296875 15.87890625 C-16.41457275 16.51127197 -17.53227051 17.1436377 -18.68383789 17.79516602 C-28.17524647 23.18117169 -37.60489691 28.6725355 -47.01953125 34.19140625 C-53.32507919 37.88603935 -59.65231936 41.54243306 -65.984375 45.19140625 C-67.06452881 45.81394287 -68.14468262 46.43647949 -69.25756836 47.07788086 C-71.44733834 48.33967451 -73.63719855 49.60131159 -75.82714844 50.86279297 C-80.1735464 53.36704755 -84.51847773 55.87383977 -88.86328125 58.38085938 C-92.11440979 60.2568114 -95.36579874 62.13231154 -98.6171875 64.0078125 C-102.92539151 66.49321527 -107.23260289 68.98032602 -111.5390625 71.46875 C-124.35123312 78.86982819 -137.1815915 86.2378765 -150.03662109 93.56420898 C-151.1498877 94.19915283 -152.2631543 94.83409668 -153.41015625 95.48828125 C-154.39153564 96.04741211 -155.37291504 96.60654297 -156.3840332 97.18261719 C-157.283396 97.70114258 -158.18275879 98.21966797 -159.109375 98.75390625 C-159.97818393 99.12823445 -160.84699286 99.50256266 -161.74212933 99.88823414 C-164.45266381 101.60387451 -164.45266381 101.60387451 -164.72461414 105.02788067 C-164.74566295 106.41041776 -164.73880749 107.79353856 -164.71064758 109.1759491 C-164.71491971 109.93805311 -164.71919183 110.70015712 -164.72359341 111.4853552 C-164.73185001 114.04706258 -164.7042964 116.6071439 -164.67700195 119.16870117 C-164.67559205 121.0016323 -164.67638233 122.83456625 -164.67921448 124.66749573 C-164.6806523 129.65087626 -164.65120337 134.63365816 -164.61634469 139.61689925 C-164.58514206 144.82190547 -164.58215527 150.02692458 -164.57621765 155.23200989 C-164.56066127 165.09184801 -164.51960849 174.95140977 -164.4694702 184.81112605 C-164.41363257 196.03464318 -164.38610428 207.25817333 -164.36099303 218.48179471 C-164.30869425 241.57265193 -164.22071707 264.66326362 -164.109375 287.75390625 C-163.32990509 288.19899033 -162.55043518 288.6440744 -161.74734497 289.10264587 C-158.78726901 290.79303708 -155.82732468 292.48365833 -152.86746216 294.17442322 C-151.59916158 294.89885681 -150.33081225 295.62320505 -149.06240845 296.34745789 C-137.12997974 303.16095929 -125.22444793 310.020341 -113.32714844 316.89501953 C-107.92266855 320.0171523 -102.51590088 323.13531829 -97.109375 326.25390625 C-94.9426975 327.50388747 -92.77603083 328.75388746 -90.609375 330.00390625 C-89.536875 330.62265625 -88.464375 331.24140625 -87.359375 331.87890625 C-51.609375 352.50390625 -51.609375 352.50390625 -48.35424805 354.38232422 C-46.20520289 355.62185323 -44.05563274 356.86047251 -41.90551758 358.09814453 C-36.82565226 361.02374566 -31.75166538 363.95836954 -26.6960144 366.92559814 C-24.30733158 368.32679576 -21.91563284 369.7227991 -19.52368164 371.1184082 C-17.83638699 372.1057845 -16.15348636 373.10065749 -14.47070312 374.09570312 C-13.44783203 374.69189453 -12.42496094 375.28808594 -11.37109375 375.90234375 C-10.47350342 376.43005371 -9.57591309 376.95776367 -8.65112305 377.50146484 C-5.97936812 378.81796689 -4.08752508 379.58647161 -1.109375 379.75390625 C1.72609911 378.6681307 1.72609911 378.6681307 4.58984375 376.87890625 C5.70311035 376.23107178 6.81637695 375.5832373 7.96337891 374.91577148 C9.16840488 374.19533471 10.37331725 373.4747079 11.578125 372.75390625 C12.83427916 372.01686928 14.09129187 371.28129379 15.34912109 370.54711914 C17.93884671 369.03323679 20.52406286 367.51206199 23.10595703 365.98486328 C28.7143864 362.67169036 34.36779916 359.43677611 40.015625 356.19140625 C42.16442297 354.95114514 44.31286025 353.71025894 46.4609375 352.46875 C52.93572522 348.72738969 59.41298843 344.99033142 65.890625 341.25390625 C68.0573025 340.00392503 70.22396917 338.75392504 72.390625 337.50390625 C111.390625 315.00390625 111.390625 315.00390625 114.64672852 313.12548828 C116.79316959 311.88708854 118.93949304 310.6484849 121.08569336 309.40966797 C126.19064506 306.46335269 131.29683467 303.51924167 136.40713501 300.58221436 C138.83723052 299.18540818 141.26666435 297.78745347 143.69604492 296.3894043 C145.42366915 295.39584633 147.1522562 294.40396316 148.88085938 293.41210938 C149.91662109 292.81591797 150.95238281 292.21972656 152.01953125 291.60546875 C152.93806885 291.07775879 153.85660645 290.55004883 154.80297852 290.00634766 C156.80583359 288.91955955 156.80583359 288.91955955 157.890625 287.75390625 C158.02148457 285.37171125 158.08739992 283.01709924 158.11181641 280.63293457 C158.12325432 279.8788895 158.13469223 279.12484443 158.14647675 278.3479495 C158.18347262 275.80167063 158.21295153 273.25536342 158.2421875 270.70898438 C158.26644354 268.89094745 158.29093427 267.07291364 158.31564331 265.25488281 C158.53244176 248.63198472 158.65347435 232.00790298 158.74993896 215.38391876 C158.81624903 204.20360273 158.91086057 193.02501992 159.07714844 181.84570312 C159.22214851 172.09714359 159.3143721 162.34978597 159.34262276 152.60016203 C159.35929975 147.43916367 159.40183058 142.2813675 159.50714111 137.12135315 C159.60533828 132.26103992 159.63230811 127.40543193 159.6055336 122.54425049 C159.6080564 120.76430915 159.63613763 118.98418501 159.69216537 117.2051239 C160.22747658 108.0718667 160.22747658 108.0718667 156.43660927 100.17586708 C152.85652319 97.3480268 148.9434162 95.40285252 144.77223587 93.59935379 C141.93625744 92.32508873 139.31234423 90.72408393 136.65234375 89.12109375 C134.62838273 87.95567809 132.60362478 86.79164548 130.578125 85.62890625 C128.30856101 84.32297356 126.03903072 83.01698232 123.76953125 81.7109375 C122.62758301 81.05432129 121.48563477 80.39770508 120.30908203 79.72119141 C117.01010803 77.82266745 113.71351731 75.92008774 110.41796875 74.015625 C98.6264446 67.20192484 86.81618933 60.42259588 74.98590088 53.67654419 C65.95617083 48.52559458 56.96536051 43.31107307 47.99462891 38.05810547 C38.92631567 32.75604922 29.80801848 27.5434943 20.6796875 22.34570312 C19.02839844 21.40500977 19.02839844 21.40500977 17.34375 20.4453125 C15.74176758 19.53483154 15.74176758 19.53483154 14.10742188 18.60595703 C11.89444207 17.33184768 9.69313772 16.03731192 7.50195312 14.72607422 C5.89223633 13.76338623 5.89223633 13.76338623 4.25 12.78125 C3.29061523 12.19980225 2.33123047 11.61835449 1.34277344 11.01928711 C-2.94893469 8.80463924 -5.08503575 10.09305095 -9.02734375 12.32421875 Z " fill="#000000" transform="translate(172.109375,0.24609375)"/>
</svg>
